<svg width="174" height="170" viewBox="0 0 174 170" fill="none" xmlns="http://www.w3.org/2000/svg">
<path d="M86.9227 0.753303C39.1049 0.733967 0.375 39.4445 0.375 87.2236C0.375 125.006 24.6029 157.123 58.3441 168.918C62.8881 170.059 62.192 166.83 62.192 164.625V149.64C35.9531 152.714 34.8896 135.351 33.1301 132.45C29.5723 126.379 21.1611 124.832 23.6748 121.932C29.6496 118.857 35.7404 122.705 42.798 133.127C47.9027 140.687 57.8607 139.411 62.9074 138.154C64.0096 133.611 66.3686 129.55 69.617 126.398C42.4307 121.526 31.0998 104.935 31.0998 85.2127C31.0998 75.6414 34.2516 66.8435 40.4391 59.7472C36.4945 48.049 40.8064 38.033 41.3865 36.5441C52.6207 35.5387 64.2996 44.5879 65.2084 45.3033C71.5893 43.5824 78.8789 42.6736 87.0387 42.6736C95.2371 42.6736 102.546 43.6211 108.985 45.3613C111.17 43.6984 121.998 35.9254 132.439 36.8728C133 38.3617 137.215 48.1457 133.503 59.6892C139.768 66.8049 142.958 75.6801 142.958 85.2707C142.958 105.032 131.55 121.642 104.286 126.437C106.622 128.733 108.476 131.472 109.741 134.493C111.006 137.514 111.656 140.757 111.653 144.033V165.786C111.808 167.526 111.653 169.247 114.554 169.247C148.798 157.703 173.451 125.354 173.451 87.2429C173.451 39.4445 134.702 0.753303 86.9227 0.753303V0.753303Z" fill="white"/>
</svg>
