<svg width="36" height="36" viewBox="0 0 36 36" fill="none" xmlns="http://www.w3.org/2000/svg">
<path d="M18 0.719971C8.45643 0.719971 0.720032 8.45637 0.720032 18C0.720032 27.5436 8.45643 35.28 18 35.28C27.5436 35.28 35.28 27.5436 35.28 18C35.28 8.45637 27.5436 0.719971 18 0.719971ZM24.6456 20.2158C24.6456 20.2158 26.1738 21.7242 26.55 22.4244C26.5608 22.4388 26.5662 22.4532 26.5698 22.4604C26.7228 22.7178 26.7588 22.9176 26.6832 23.067C26.5572 23.3154 26.1252 23.4378 25.9776 23.4486H23.2776C23.0904 23.4486 22.698 23.4 22.2228 23.0724C21.8574 22.8168 21.4974 22.3974 21.1464 21.9888C20.6226 21.3804 20.169 20.8548 19.7118 20.8548C19.6538 20.8547 19.596 20.8638 19.5408 20.8818C19.1952 20.9934 18.7524 21.4866 18.7524 22.8006C18.7524 23.211 18.4284 23.4468 18.1998 23.4468H16.9632C16.542 23.4468 14.3478 23.2992 12.4038 21.249C10.0242 18.738 7.88223 13.7016 7.86423 13.6548C7.72923 13.329 8.00823 13.1544 8.31243 13.1544H11.0394C11.403 13.1544 11.5218 13.3758 11.6046 13.572C11.7018 13.8006 12.0582 14.7096 12.6432 15.732C13.5918 17.3988 14.1732 18.0756 14.6394 18.0756C14.7268 18.0745 14.8127 18.0523 14.8896 18.0108C15.498 17.6724 15.3846 15.5034 15.3576 15.0534C15.3576 14.9688 15.3558 14.0832 15.0444 13.6584C14.8212 13.3506 14.4414 13.2336 14.211 13.1904C14.3043 13.0617 14.4271 12.9574 14.5692 12.8862C14.9868 12.6774 15.7392 12.6468 16.4862 12.6468H16.902C17.712 12.6576 17.9208 12.7098 18.2142 12.7836C18.8082 12.9258 18.8208 13.3092 18.7686 14.6214C18.7524 14.994 18.7362 15.4152 18.7362 15.912C18.7362 16.02 18.7308 16.1352 18.7308 16.2576C18.7128 16.9254 18.6912 17.6832 19.1628 17.9946C19.2243 18.0331 19.2954 18.0537 19.368 18.054C19.5318 18.054 20.025 18.054 21.3606 15.7626C21.7725 15.025 22.1305 14.2586 22.4316 13.4694C22.4586 13.4226 22.5378 13.2786 22.6314 13.2228C22.7005 13.1876 22.7771 13.1696 22.8546 13.1706H26.0604C26.4096 13.1706 26.649 13.2228 26.694 13.3578C26.7732 13.572 26.6796 14.2254 25.2162 16.2072L24.5628 17.0694C23.2362 18.8082 23.2362 18.8964 24.6456 20.2158V20.2158Z" fill="white"/>
</svg>
